sfk_cyclingleg_states
version=1
nRows=12
nColumns=49
inDegrees=yes

# SIMM Motion File Header:
name sfk_cyclingleg_states
datacolumns 49
datarows 12
otherdata 1
range 0.54888217 0.55347687
endheader
time	/jointset/bb/crank_angle/value	/jointset/bb/crank_angle/speed	/jointset/spindle/pedal_angle_r/value	/jointset/spindle/pedal_angle_r/speed	/jointset/ground_pelvis/pelvis_tilt/value	/jointset/ground_pelvis/pelvis_tilt/speed	/jointset/ground_pelvis/pelvis_list/value	/jointset/ground_pelvis/pelvis_list/speed	/jointset/ground_pelvis/pelvis_rotation/value	/jointset/ground_pelvis/pelvis_rotation/speed	/jointset/ground_pelvis/pelvis_tx/value	/jointset/ground_pelvis/pelvis_tx/speed	/jointset/ground_pelvis/pelvis_ty/value	/jointset/ground_pelvis/pelvis_ty/speed	/jointset/ground_pelvis/pelvis_tz/value	/jointset/ground_pelvis/pelvis_tz/speed	/jointset/hip_r/hip_angle_r/value	/jointset/hip_r/hip_angle_r/speed	/jointset/hip_r/hip_adduction_r/value	/jointset/hip_r/hip_adduction_r/speed	/jointset/hip_r/hip_rotation_r/value	/jointset/hip_r/hip_rotation_r/speed	/jointset/knee_r/knee_angle_r/value	/jointset/knee_r/knee_angle_r/speed	/jointset/knee_r/tib_tx_r/value	/jointset/knee_r/tib_tx_r/speed	/jointset/knee_r/tib_ty_r/value	/jointset/knee_r/tib_ty_r/speed	/jointset/tib_pat_r/pat_angle_r/value	/jointset/tib_pat_r/pat_angle_r/speed	/jointset/tib_pat_r/pat_tx_r/value	/jointset/tib_pat_r/pat_tx_r/speed	/jointset/tib_pat_r/pat_ty_r/value	/jointset/tib_pat_r/pat_ty_r/speed	/jointset/ankle_r/ankle_angle_r/value	/jointset/ankle_r/ankle_angle_r/speed	/jointset/subtalar_r/subtalar_angle_r/value	/jointset/subtalar_r/subtalar_angle_r/speed	/jointset/mtp_r/mtp_angle_r/value	/jointset/mtp_r/mtp_angle_r/speed	/forceset/bifemlh_r/activation	/forceset/bifemlh_r/fiber_length	/forceset/bifemsh_r/activation	/forceset/bifemsh_r/fiber_length	/forceset/glut_max2_r/activation	/forceset/glut_max2_r/fiber_length	/forceset/vas_int_r/activation	/forceset/vas_int_r/fiber_length
      0.54888217	   -273.67441127	   -480.13863232	    250.90319265	    425.89906017	      0.00000000	     -0.00000000	     -0.00000000	     -0.00000000	      0.00000000	      0.00000000	     -0.00000000	     -0.00000000	      0.00000000	      0.00000000	     -0.00000000	     -0.00000000	     54.44665207	    147.73640807	      4.21607445	     -2.02753957	     -2.44567481	    -20.74210484	   -100.78412347	   -243.84789500	      0.00193335	     -0.05289922	     -0.48966754	     -0.08379471	     17.60977899	      1.00340773	      0.02841427	     -0.10348740	     -0.02321787	     -0.01425332	     24.14596118	     43.42181439	     -0.00000000	     -0.00000000	      0.00000000	      0.00000000	     -0.04522649	      0.11550102	     -0.04522649	      0.14823473	     -0.04522649	      0.14045202	     -0.04522649	      0.15389896
      0.54933052	   -273.88968303	   -480.13863232	    251.09431869	    426.66990351	      0.00000000	     -0.00000000	     -0.00000000	     -0.00000000	      0.00000000	      0.00000000	     -0.00000000	     -0.00000000	      0.00000000	      0.00000000	     -0.00000000	     -0.00000000	     54.51293191	    147.92247703	      4.21516518	     -2.02847191	     -2.45497069	    -20.72465639	   -100.89334895	   -243.38119029	      0.00190961	     -0.05300853	     -0.48970507	     -0.08361470	     17.61022806	      0.99978968	      0.02836789	     -0.10339949	     -0.02322426	     -0.01427260	     24.16545626	     43.54104910	     -0.00000000	     -0.00000000	      0.00000000	      0.00000000	     -0.04528422	      0.11555026	     -0.04528422	      0.14820431	     -0.04528422	      0.14049600	     -0.04528422	      0.15391105
      0.54951013	   -273.97591907	   -480.13863232	    251.17097915	    426.97896485	      0.00000000	     -0.00000000	     -0.00000000	     -0.00000000	      0.00000000	      0.00000000	     -0.00000000	     -0.00000000	      0.00000000	      0.00000000	     -0.00000000	     -0.00000000	     54.53950644	    147.99691203	      4.21480083	     -2.02882857	     -2.45869235	    -20.71761295	   -100.93704497	   -243.19359138	      0.00190009	     -0.05305188	     -0.48972008	     -0.08354233	     17.61040750	      0.99832089	      0.02834932	     -0.10336386	     -0.02322683	     -0.01428018	     24.17328079	     43.58853607	     -0.00000000	     -0.00000000	      0.00000000	      0.00000000	     -0.04530734	      0.11557005	     -0.04530734	      0.14819217	     -0.04530734	      0.14051362	     -0.04530734	      0.15392684
      0.54997119	   -274.19729347	   -480.13863232	    251.36802658	    427.77304376	      0.00000000	     -0.00000000	     -0.00000000	     -0.00000000	      0.00000000	      0.00000000	     -0.00000000	     -0.00000000	      0.00000000	      0.00000000	     -0.00000000	     -0.00000000	     54.60778642	    148.18771930	      4.21386520	     -2.02969995	     -2.46824029	    -20.69939000	   -101.04906134	   -242.71032963	      0.00187560	     -0.05316201	     -0.48975856	     -0.08335589	     17.61086691	      0.99450000	      0.02830169	     -0.10327132	     -0.02323341	     -0.01429922	     24.19340584	     43.70970671	     -0.00000000	     -0.00000000	      0.00000000	      0.00000000	     -0.04536671	      0.11562103	     -0.04536671	      0.14816115	     -0.04536671	      0.14055888	     -0.04536671	      0.15398061
      0.55042997	   -274.41756993	   -480.13863232	    251.56446036	    428.56416776	      0.00000000	     -0.00000000	     -0.00000000	     -0.00000000	      0.00000000	      0.00000000	     -0.00000000	     -0.00000000	      0.00000000	      0.00000000	     -0.00000000	     -0.00000000	     54.67581498	    148.37718434	      4.21293384	     -2.03050372	     -2.47773249	    -20.68105297	   -101.16030044	   -242.22705905	      0.00185119	     -0.05326993	     -0.48979676	     -0.08316942	     17.61132228	      0.99062677	      0.02825433	     -0.10317767	     -0.02323998	     -0.01431761	     24.21348630	     43.82922290	     -0.00000000	     -0.00000000	      0.00000000	      0.00000000	     -0.04542577	      0.11567201	     -0.04542577	      0.14813047	     -0.04542577	      0.14060393	     -0.04542577	      0.15408610
      0.55088874	   -274.63784639	   -480.13863232	    251.76125732	    429.35626029	      0.00000000	     -0.00000000	     -0.00000000	     -0.00000000	      0.00000000	      0.00000000	     -0.00000000	     -0.00000000	      0.00000000	      0.00000000	     -0.00000000	     -0.00000000	     54.74393037	    148.56624692	      4.21200212	     -2.03124415	     -2.48721623	    -20.66250982	   -101.27131728	   -241.74138421	      0.00182672	     -0.05337620	     -0.48983487	     -0.08298201	     17.61177585	      0.98668333	      0.02820702	     -0.10308246	     -0.02324655	     -0.01433544	     24.23362134	     43.94767847	     -0.00000000	     -0.00000000	      0.00000000	      0.00000000	     -0.04548484	      0.11572325	     -0.04548484	      0.14809998	     -0.04548484	      0.14064900	     -0.04548484	      0.15410006
      0.55105704	   -274.71865097	   -480.13863232	    251.83353998	    429.64706596	      0.00000000	     -0.00000000	     -0.00000000	     -0.00000000	      0.00000000	      0.00000000	     -0.00000000	     -0.00000000	      0.00000000	      0.00000000	     -0.00000000	     -0.00000000	     54.76893905	    148.63549884	      4.21166025	     -2.03149984	     -2.49069304	    -20.65565550	   -101.31198593	   -241.56261921	      0.00181774	     -0.05341476	     -0.48984883	     -0.08291303	     17.61194178	      0.98521933	      0.02818967	     -0.10304715	     -0.02324896	     -0.01434184	     24.24102112	     43.99086399	     -0.00000000	     -0.00000000	      0.00000000	      0.00000000	     -0.04550651	      0.11574211	     -0.04550651	      0.14808885	     -0.04550651	      0.14066554	     -0.04550651	      0.15411558
      0.55156057	   -274.96041493	   -480.13863232	    252.05009915	    430.51790646	      0.00000000	     -0.00000000	     -0.00000000	     -0.00000000	      0.00000000	      0.00000000	     -0.00000000	     -0.00000000	      0.00000000	      0.00000000	     -0.00000000	     -0.00000000	     54.84383351	    148.84236447	      4.21063715	     -2.03221372	     -2.50108857	    -20.63497920	   -101.43348481	   -241.02582370	      0.00179081	     -0.05352879	     -0.48989053	     -0.08270587	     17.61243675	      0.98078383	      0.02813781	     -0.10294022	     -0.02325619	     -0.01436053	     24.26320419	     44.11920826	     -0.00000000	     -0.00000000	      0.00000000	      0.00000000	     -0.04557134	      0.11579873	     -0.04557134	      0.14805568	     -0.04557134	      0.14071505	     -0.04557134	      0.15417483
      0.55211048	   -275.22444868	   -480.13863232	    252.28710768	    431.47025267	      0.00000000	     -0.00000000	     -0.00000000	     -0.00000000	      0.00000000	      0.00000000	     -0.00000000	     -0.00000000	      0.00000000	      0.00000000	     -0.00000000	     -0.00000000	     54.92574562	    149.06770518	      4.20951941	     -2.03290552	     -2.51242971	    -20.61210726	   -101.56586573	   -240.43625752	      0.00176134	     -0.05365101	     -0.48993595	     -0.08247834	     17.61297475	      0.97584625	      0.02808124	     -0.10282127	     -0.02326409	     -0.01438017	     24.28750405	     44.25788137	     -0.00000000	     -0.00000000	      0.00000000	      0.00000000	     -0.04564214	      0.11586091	     -0.04564214	      0.14801971	     -0.04564214	      0.14076914	     -0.04564214	      0.15429638
      0.55266039	   -275.48848243	   -480.13863232	    252.52464029	    432.42392326	      0.00000000	     -0.00000000	     -0.00000000	     -0.00000000	      0.00000000	      0.00000000	     -0.00000000	     -0.00000000	      0.00000000	      0.00000000	     -0.00000000	     -0.00000000	     55.00778148	    149.29242725	      4.20840133	     -2.03350531	     -2.52375819	    -20.58892779	   -101.69792149	   -239.84321295	      0.00173181	     -0.05377080	     -0.48998124	     -0.08224945	     17.61350999	      0.97081254	      0.02802473	     -0.10270005	     -0.02327201	     -0.01439900	     24.31187973	     44.39497862	     -0.00000000	     -0.00000000	      0.00000000	      0.00000000	     -0.04571294	      0.11592345	     -0.04571294	      0.14798402	     -0.04571294	      0.14082326	     -0.04571294	      0.15431306
      0.55298498	   -275.64433030	   -480.13863232	    252.66509192	    432.98744679	      0.00000000	     -0.00000000	     -0.00000000	     -0.00000000	      0.00000000	      0.00000000	     -0.00000000	     -0.00000000	      0.00000000	      0.00000000	     -0.00000000	     -0.00000000	     55.05626170	    149.42477529	      4.20774122	     -2.03381601	     -2.53043889	    -20.57510007	   -101.77571499	   -239.49152834	      0.00171434	     -0.05384035	     -0.49000791	     -0.08211372	     17.61382462	      0.96779688	      0.02799140	     -0.10262743	     -0.02327668	     -0.01440974	     24.32630290	     44.47515470	     -0.00000000	     -0.00000000	      0.00000000	      0.00000000	     -0.04575473	      0.11596054	     -0.04575473	      0.14796308	     -0.04575473	      0.14085522	     -0.04575473	      0.15434608
      0.55347687	   -275.88050444	   -480.13863232	    252.87828318	    433.84227252	      0.00000000	     -0.00000000	     -0.00000000	     -0.00000000	      0.00000000	      0.00000000	     -0.00000000	     -0.00000000	      0.00000000	      0.00000000	     -0.00000000	     -0.00000000	     55.12981110	    149.62491138	      4.20674071	     -2.03422540	     -2.54055433	    -20.55393689	   -101.89338632	   -238.95626184	      0.00168783	     -0.05394413	     -0.49004825	     -0.08190714	     17.61429953	      0.96316483	      0.02794095	     -0.10251585	     -0.02328377	     -0.01442547	     24.34820934	     44.59558885	     -0.00000000	     -0.00000000	      0.00000000	      0.00000000	     -0.04581806	      0.11601696	     -0.04581806	      0.14793152	     -0.04581806	      0.14090368	     -0.04581806	      0.15445809
